The Dark Knight Rises 2012 TS XViD AC3 SeeN-CM8


Thx SeeN


Sources:Video - Source from a friend  cheers bro
Audio - New Line, DrunkenNinja, awesome as always , cheers bro


Video: 688x336 @ 1200Kbps 2pass  
Audio: English AC3 2.0 @ 128Kbps 
Subtitles : None
Sample: Yes, included

 
http://www.imdb.com/title/tt1345836/


Notes:
thanks very much for Source , this was a huge file and wierd angle and perpective, 
spent some time given it a work over and cleaning it up.
audio is amazing but had a tiny bit of static for a few seconds. overall a 
veiwable encode of an amazing movie
hope you all enjoy.


Complete name           
Format                                   : AVI
Format/Info                              : Audio Video Interleave
File size                                : 1.45 GiB
Duration                                 : 2h 35mn
Overall bit rate                         : 1 338 Kbps
Writing library                          : VirtualDub build 34807/release

Video
ID                                       : 0
Format                                   : MPEG-4 Visual
Format profile                           : Advanced Simple@L5
Codec ID                                 : XVID
Duration                                 : 2h 35mn
Bit rate                                 : 1 200 Kbps
Width                                    : 688 pixels
Height                                   : 336 pixels
Display aspect ratio                     : 2.048
Frame rate                               : 25.000 fps
Stream size                              : 1.30 GiB (90%)
Writing library                          : XviD 64

Audio
ID                                       : 1
Format                                   : AC-3
Bit rate                                 : 128 Kbps
Channel(s)                               : 2 channels
Channel positions                        : Front: L R
Sampling rate                            : 48.0 KHz
Stream size                              : 142 MiB (10%)


Plot:
Eight years on, a new terrorist leader, Bane, overwhelms Gotham's finest, 
and the Dark Knight resurfaces to protect a city that has branded him an enemy. 


Poster:

 
http://i.imgur.com/2Rhj8.jpg


Screenshots:

 
http://i.imgur.com/HI6k3.png

 
http://i.imgur.com/i0DCn.png

 
http://i.imgur.com/fr1Zr.png


ENJOY!